<svg id="Layer_1" data-name="Layer 1" xmlns="http://www.w3.org/2000/svg" viewBox="0 0 1080 1080"><defs><style>.cls-1{font-size:89.43px;font-family:SpaceGrotesk-Medium, Space Grotesk;font-weight:500;letter-spacing:-0.06em;}.cls-1,.cls-3{fill:#fff;}.cls-2{letter-spacing:-0.07em;}</style></defs><text class="cls-1" transform="translate(374.73 572.24)">Nucleus<tspan class="cls-2" x="305.03" y="0">DA</tspan><tspan x="408.32" y="0">O</tspan></text><path class="cls-3" d="M270.32,577.79A17.51,17.51,0,0,1,250.23,579c-7.28-4.71-10-12.12-7.82-20,1.75-6.32,6-10.21,12-12.32,10.65-3.74,16.23-16,11.77-26.39-1.78-4.13-3.44-8.17-2.69-12.8a17.78,17.78,0,1,1,33.06,11.32c-2.32,4.26-6.07,6.89-10.63,8.43-7.28,2.45-12.73,10.11-13,17.93a23.65,23.65,0,0,0,2.59,11A17.56,17.56,0,0,1,270.32,577.79Z"/><path class="cls-3" d="M263.75,513.3A17.5,17.5,0,0,1,272,494.93c7.54-4.28,15.37-3.26,21.33,2.31,4.8,4.47,6.3,10,5.39,16.3-1.61,11.17,6.71,21.8,18,22.64,4.48.33,8.83.73,12.59,3.53a17.78,17.78,0,1,1-25.33,24.08c-2.71-4-3.3-8.57-2.55-13.32,1.19-7.59-3.08-16-9.9-19.81a23.59,23.59,0,0,0-11-2.8A17.57,17.57,0,0,1,263.75,513.3Z"/><path class="cls-3" d="M330,568.13a17.49,17.49,0,0,1-20.09,1.22c-7.28-4.71-10-12.12-7.82-20,1.75-6.32,5.95-10.2,12-12.31,10.65-3.74,16.23-16,11.77-26.4-1.78-4.13-3.44-8.17-2.69-12.79a17.78,17.78,0,1,1,33.06,11.32c-2.32,4.26-6.07,6.89-10.63,8.42-7.28,2.46-12.73,10.12-13,17.94a23.58,23.58,0,0,0,2.59,11A17.56,17.56,0,0,1,330,568.13Z"/></svg>